<svg width="26" height="27" viewBox="0 0 26 27" fill="none" xmlns="http://www.w3.org/2000/svg">
<path d="M1.53127 23.027C0.906445 23.6518 0.906417 24.6649 1.53127 25.2898C2.15613 25.9146 3.16919 25.9146 3.79401 25.2898L24.7244 4.3594C25.3492 3.73457 25.3492 2.72151 24.7244 2.09666C24.0995 1.4718 23.0865 1.47183 22.4616 2.09666L1.53127 23.027Z" fill="black"/>
<path d="M3.79397 2.09603C3.16914 1.4712 2.15608 1.47118 1.53123 2.09603C0.906371 2.72089 0.906399 3.73395 1.53123 4.35877L22.4616 25.2891C23.0864 25.914 24.0995 25.914 24.7243 25.2891C25.3492 24.6643 25.3492 23.6512 24.7243 23.0264L3.79397 2.09603Z" fill="black"/>
</svg>
