<svg width="23" height="23" viewBox="0 0 23 23" fill="none" xmlns="http://www.w3.org/2000/svg">
<path d="M11.966 10.2816L7.83033 4.49475H5.62451L10.7476 11.6627L11.3925 12.5644L15.7776 18.705H17.9834L12.6082 11.1833L11.966 10.2816Z" fill="#060A05"/>
<path d="M21.128 0.383667H2.49122C1.45726 0.383667 0.619141 1.22179 0.619141 2.25574V20.8925C0.619141 21.9265 1.45726 22.7646 2.49122 22.7646H21.128C22.162 22.7646 23.0001 21.9265 23.0001 20.8925V2.25574C23.0001 1.22179 22.162 0.383667 21.128 0.383667ZM15.101 19.7127L10.6629 13.3921L5.10697 19.7127H3.67109L10.0261 12.485L3.67109 3.43562H8.51824L12.7199 9.41943L17.9843 3.43562H19.4201L13.36 10.3286L19.9481 19.7127H15.101Z" fill="#060A05"/>
</svg>
