<svg width="23" height="23" viewBox="0 0 23 23" fill="none" xmlns="http://www.w3.org/2000/svg">
<path fill-rule="evenodd" clip-rule="evenodd" d="M19.8848 0.383667C21.394 0.383667 22.6192 1.60894 22.6192 3.11808V20.0302C22.6192 21.5394 21.394 22.7646 19.8848 22.7646H15.2308V14.3318H18.1421L18.696 10.7202H15.2308V8.37642C15.2308 7.38838 15.7148 6.42526 17.267 6.42526H18.8424V3.3505C18.8424 3.3505 17.4126 3.10649 16.0456 3.10649C13.1917 3.10649 11.3264 4.83616 11.3264 7.96753V10.7202H8.15401V14.3318H11.3264V22.7646H2.97269C1.46355 22.7646 0.238281 21.5394 0.238281 20.0302V3.11808C0.238281 1.60894 1.46351 0.383667 2.97269 0.383667L19.8848 0.383667Z" fill="#060A05"/>
</svg>
